<?xml version="1.0" encoding="utf-8"?>
<!-- Generator: Adobe Illustrator 24.1.1, SVG Export Plug-In . SVG Version: 6.00 Build 0)  -->
<svg version="1.0" xmlns="http://www.w3.org/2000/svg" xmlns:xlink="http://www.w3.org/1999/xlink" x="0px" y="0px"
	 viewBox="0 0 601.52 290.03" style="enable-background:new 0 0 601.52 290.03;" xml:space="preserve">
<style type="text/css">
	.st0{fill:#2A229D;}
	.st1{fill:#FFFFFF;}
	.st2{fill:#4293FF;}
	.st3{opacity:0.31;}
	.st4{fill:none;stroke:#FFFFFF;stroke-width:0.8803;stroke-linecap:round;stroke-linejoin:round;}
	.st5{fill:none;stroke:#FFFFFF;stroke-width:0.8803;stroke-linecap:round;stroke-linejoin:round;stroke-dasharray:4.3966,4.3966;}
	.st6{fill:none;stroke:#FFFFFF;stroke-width:0.8803;stroke-linecap:round;stroke-linejoin:round;stroke-dasharray:4.3632,4.3632;}
	.st7{fill:none;stroke:#FFFFFF;stroke-width:0.8803;stroke-linecap:round;stroke-linejoin:round;stroke-dasharray:4.422,4.422;}
	.st8{fill:url(#SVGID_1_);}
	.st9{opacity:0.18;fill:#0E0092;}
	.st10{fill:url(#SVGID_2_);}
	.st11{fill:#DEF2FB;}
	.st12{fill:url(#SVGID_3_);}
	.st13{fill:#43FFD9;}
	.st14{fill:#FF6570;}
	.st15{fill:#00D1FF;}
	.st16{fill:#FFE000;}
	.st17{opacity:0.75;fill:#00D1FF;}
	.st18{opacity:0.22;fill:#00D1FF;}
	.st19{opacity:0.48;fill:#00D1FF;}
	.st20{fill:#FFD2D2;}
	.st21{fill:#FFDEDE;}
	.st22{fill:#FCCACA;}
	.st23{fill:#F8B024;}
	.st24{fill:url(#SVGID_4_);}
	.st25{opacity:0.44;fill:url(#SVGID_5_);}
	.st26{opacity:0.42;fill:url(#SVGID_6_);}
	.st27{fill:url(#SVGID_7_);}
	.st28{opacity:0.44;fill:url(#SVGID_8_);}
	.st29{opacity:0.42;fill:url(#SVGID_9_);}
	.st30{fill:url(#SVGID_10_);}
	.st31{fill:url(#SVGID_11_);}
	.st32{opacity:0.3;fill:url(#SVGID_12_);}
	.st33{fill:url(#SVGID_13_);}
	.st34{opacity:0.3;fill:url(#SVGID_14_);}
	.st35{fill:url(#SVGID_15_);}
	.st36{opacity:0.5;}
	.st37{fill:url(#SVGID_16_);}
	.st38{fill:url(#SVGID_17_);}
	.st39{fill:url(#SVGID_18_);}
	.st40{fill:url(#SVGID_19_);}
	.st41{opacity:0.5;fill:url(#SVGID_20_);}
	.st42{fill:url(#SVGID_21_);}
	.st43{fill:url(#SVGID_22_);}
	.st44{opacity:0.8;fill:url(#SVGID_23_);}
	.st45{fill:url(#SVGID_24_);}
	.st46{fill:#E6F4FF;}
	.st47{fill:url(#SVGID_25_);}
	.st48{fill:#00BBFF;}
	.st49{fill:#7FD4FF;}
	.st50{fill:#FFCC00;}
	.st51{opacity:0.22;fill:#FFCC00;}
	.st52{fill:#FFDA00;}
	.st53{fill:#FFE356;}
	.st54{fill:#3052E9;}
	.st55{fill:#030478;}
	.st56{fill:url(#SVGID_26_);}
	.st57{fill:#F8C3C7;}
	.st58{fill:#FFCCCC;}
	.st59{fill:#241D9E;}
	.st60{fill:url(#SVGID_27_);}
	.st61{fill:url(#SVGID_28_);}
	.st62{fill:#FF9A25;}
	.st63{fill:url(#SVGID_29_);}
	.st64{opacity:0.55;}
	.st65{opacity:0.69;fill:#C2EEFF;}
	.st66{fill:#C2EEFF;}
	.st67{opacity:0.55;fill:#C2EEFF;}
	.st68{fill:url(#SVGID_30_);}
	.st69{fill:url(#SVGID_31_);}
	.st70{fill:url(#SVGID_32_);}
	.st71{fill:url(#SVGID_33_);}
	.st72{fill:url(#SVGID_34_);}
	.st73{fill:url(#SVGID_35_);}
	.st74{fill:#FDB42C;}
	.st75{fill:url(#SVGID_36_);}
	.st76{fill:url(#SVGID_37_);}
	.st77{fill:#BFE8F7;}
	.st78{opacity:0.58;}
	.st79{fill:none;stroke:#FFFFFF;stroke-width:0.622;stroke-miterlimit:10;}
	.st80{fill:url(#SVGID_38_);}
	.st81{fill:url(#SVGID_39_);}
	.st82{fill:url(#SVGID_40_);}
	.st83{fill:url(#SVGID_41_);}
	.st84{opacity:0.44;fill:url(#SVGID_42_);}
	.st85{opacity:0.42;fill:url(#SVGID_43_);}
	.st86{fill:url(#SVGID_44_);}
	.st87{opacity:0.44;fill:url(#SVGID_45_);}
	.st88{opacity:0.42;fill:url(#SVGID_46_);}
	.st89{fill:url(#SVGID_47_);}
	.st90{fill:url(#SVGID_48_);}
	.st91{opacity:0.3;fill:url(#SVGID_49_);}
	.st92{fill:url(#SVGID_50_);}
	.st93{opacity:0.3;fill:url(#SVGID_51_);}
	.st94{fill:url(#SVGID_52_);}
	.st95{fill:url(#SVGID_53_);}
	.st96{fill:url(#SVGID_54_);}
	.st97{fill:url(#SVGID_55_);}
	.st98{fill:url(#SVGID_56_);}
	.st99{opacity:0.5;fill:url(#SVGID_57_);}
	.st100{fill:url(#SVGID_58_);}
	.st101{fill:url(#SVGID_59_);}
	.st102{opacity:0.8;fill:url(#SVGID_60_);}
	.st103{fill:url(#SVGID_61_);}
	.st104{fill:url(#SVGID_62_);}
	.st105{fill:url(#SVGID_63_);}
	.st106{fill:url(#SVGID_64_);}
	.st107{fill:url(#SVGID_65_);}
	.st108{fill:url(#SVGID_66_);}
	.st109{fill:url(#SVGID_67_);}
	.st110{fill:url(#SVGID_68_);}
	.st111{fill:url(#SVGID_69_);}
	.st112{fill:url(#SVGID_70_);}
	.st113{fill:url(#SVGID_71_);}
	.st114{fill:url(#SVGID_72_);}
	.st115{fill:url(#SVGID_73_);}
	.st116{fill:url(#SVGID_74_);}
	.st117{fill:none;}
	.st118{fill:#A5B7C6;}
</style>
<g id="BACKGROUND">
</g>
<g id="OBJECTS">
	<g>
		<g class="st3">
			<g>
				<g>
					<path class="st4" d="M201.88,246.27c-0.74,0.04-1.47,0.08-2.2,0.12"/>
					<path class="st5" d="M195.29,246.63c-123.14,6.45-158.75-6.28-152.51-46.8c13.19-85.63,296.44-28.73,416.89-25.56
						c101.36,2.67,131.18-132.52-43.61-120.55c-14.62,1-44.42,18.18-44,58.81"/>
					<path class="st4" d="M372.11,114.72c0.03,0.73,0.06,1.46,0.11,2.2"/>
				</g>
				<g>
					<path class="st4" d="M350.9,108.5c0.44-0.54,0.86-1.14,1.26-1.8"/>
					<path class="st6" d="M354.08,102.78c3.25-8.04,4.73-20,3.82-27.68c-1.16-9.85-6.16-18.68-12.8-22.57
						c-8.78-5.16-18.77-1.76-28.17,0.39c-25.14,5.73-50.89,1.83-76.07-3.57c-25.18-5.39-50.35-12.28-75.83-12.49
						c-25.48-0.21-51.75,6.8-72.7,26.89c-6.75,6.47-13.04,14.56-16.26,25.02c-3.22,10.46-2.78,23.66,2.76,32.07
						c6.35,9.65,16.94,10.44,26.36,10.54c25.41,0.29,50.82,0.58,76.22,0.88"/>
					<path class="st4" d="M183.61,132.3c0.73,0.01,1.47,0.02,2.2,0.03"/>
				</g>
				<g>
					<path class="st4" d="M300.71,241.01c0.73,0,1.47,0.01,2.2,0.01"/>
					<path class="st7" d="M307.33,241.03c72.82,0.25,145.64,0.07,218.45-0.54c9-0.08,18.26-0.21,26.54-3.41
						c8.28-3.2,15.44-10.28,15.44-18.5c0-11.12-12.22-18.8-23.69-22.52c-22.17-7.18-46.22-7.3-69.75-7.34
						c-50.77-0.09-101.54-0.18-152.3-0.27"/>
					<path class="st4" d="M319.82,188.44c-0.73,0-1.47,0-2.2,0"/>
				</g>
			</g>
		</g>
		<g>
			<g>
				<g>
					<linearGradient id="SVGID_1_" gradientUnits="userSpaceOnUse" x1="296.311" y1="265.9621" x2="296.311" y2="233.8483">
						<stop  offset="0" style="stop-color:#085EFF"/>
						<stop  offset="0.9981" style="stop-color:#0E0092"/>
					</linearGradient>
					<rect x="272.59" y="234.84" class="st8" width="47.44" height="18.33"/>
					<rect x="272.59" y="234.84" class="st9" width="47.44" height="6.9"/>
					<linearGradient id="SVGID_2_" gradientUnits="userSpaceOnUse" x1="296.311" y1="66.44" x2="296.311" y2="284.2343">
						<stop  offset="0" style="stop-color:#28E8FF"/>
						<stop  offset="1" style="stop-color:#0129FF"/>
					</linearGradient>
					<path class="st10" d="M413.74,238.46H178.88c-4.97,0-8.99-4.03-8.99-8.99V104.31c0-4.97,4.03-8.99,8.99-8.99h234.86
						c4.97,0,8.99,4.03,8.99,8.99v125.16C422.73,234.44,418.71,238.46,413.74,238.46z"/>
					<path class="st11" d="M410.4,231.97H182.22c-3.13,0-5.66-2.53-5.66-5.66V107.47c0-3.13,2.53-5.66,5.66-5.66H410.4
						c3.12,0,5.66,2.53,5.66,5.66v118.85C416.06,229.44,413.53,231.97,410.4,231.97z"/>
					<rect x="176.56" y="110.21" class="st1" width="239.5" height="113.36"/>
					<linearGradient id="SVGID_3_" gradientUnits="userSpaceOnUse" x1="296.311" y1="230.9677" x2="296.311" y2="274.8097">
						<stop  offset="0" style="stop-color:#085EFF"/>
						<stop  offset="0.9981" style="stop-color:#0E0092"/>
					</linearGradient>
					<path class="st12" d="M364.84,258.5H227.79c-1.36,0-2.46-1.1-2.46-2.46v-0.41c0-1.36,1.1-2.46,2.46-2.46h137.05
						c1.36,0,2.46,1.1,2.46,2.46v0.41C367.3,257.4,366.2,258.5,364.84,258.5z"/>
				</g>
				<g>
					<path class="st13" d="M186.58,155.99c2.99,7.69,10.48,13.15,19.22,13.15c11.38,0,20.61-9.23,20.61-20.61
						c0-6.07-2.62-11.52-6.8-15.29c-3.65-3.31-8.5-5.33-13.82-5.33c-7.58,0-14.21,4.1-17.79,10.2c-1.79,3.05-2.83,6.62-2.83,10.42
						C185.19,151.16,185.68,153.68,186.58,155.99z M195.33,142.47c2.09-3.62,6-6.05,10.48-6.05c3.14,0,6,1.2,8.15,3.16
						c2.43,2.21,3.95,5.39,3.95,8.94c0,6.58-5.25,11.94-11.8,12.09c-0.1,0.01-0.2,0.01-0.31,0.01c-5.12,0-9.49-3.17-11.26-7.66
						c-0.55-1.38-0.85-2.88-0.85-4.45C193.7,146.32,194.29,144.25,195.33,142.47z"/>
					<path class="st14" d="M205.81,169.14v-8.51c0.1,0,0.21-0.01,0.31-0.01c6.54-0.15,11.8-5.51,11.8-12.09
						c0-3.55-1.52-6.73-3.95-8.94l5.66-6.35c4.18,3.77,6.8,9.22,6.8,15.29C226.42,159.91,217.19,169.14,205.81,169.14z"/>
					<path class="st15" d="M185.19,148.53c0-3.8,1.03-7.37,2.82-10.42l7.32,4.36c-1.04,1.78-1.63,3.85-1.63,6.06
						c0,1.57,0.3,3.07,0.84,4.45l-7.97,3.02C185.68,153.68,185.19,151.16,185.19,148.53z"/>
					<path class="st16" d="M188.01,138.11c3.58-6.1,10.21-10.19,17.79-10.19c5.32,0,10.17,2.01,13.82,5.32l-5.67,6.35
						c-2.15-1.96-5.01-3.16-8.15-3.16c-4.48,0-8.38,2.43-10.47,6.04L188.01,138.11z"/>
				</g>
				<g>
					<path class="st11" d="M244.51,129.3c-7.69,2.99-13.15,10.48-13.15,19.22c0,11.39,9.23,20.61,20.61,20.61
						c6.07,0,11.52-2.62,15.29-6.8c3.31-3.65,5.33-8.5,5.33-13.82c0-7.58-4.1-14.21-10.2-17.79c-3.05-1.79-6.62-2.83-10.42-2.83
						C249.34,127.91,246.82,128.4,244.51,129.3z M258.03,138.05c3.62,2.09,6.05,6,6.05,10.48c0,3.14-1.2,6-3.16,8.15
						c-2.21,2.43-5.39,3.95-8.94,3.95c-6.58,0-11.94-5.25-12.09-11.8c-0.01-0.1-0.01-0.2-0.01-0.31c0-5.12,3.17-9.49,7.66-11.26
						c1.38-0.55,2.88-0.85,4.45-0.85C254.18,136.43,256.25,137.02,258.03,138.05z"/>
					<path class="st17" d="M231.36,148.53h8.51c0,0.1,0.01,0.21,0.01,0.31c0.15,6.54,5.51,11.8,12.09,11.8
						c3.55,0,6.73-1.52,8.94-3.95l6.35,5.66c-3.77,4.18-9.22,6.8-15.29,6.8C240.59,169.14,231.36,159.91,231.36,148.53z"/>
					<path class="st18" d="M251.97,127.91c3.8,0,7.37,1.03,10.42,2.82l-4.36,7.32c-1.78-1.04-3.85-1.63-6.06-1.63
						c-1.57,0-3.07,0.3-4.45,0.84l-3.02-7.97C246.82,128.4,249.34,127.91,251.97,127.91z"/>
					<path class="st19" d="M262.39,130.73c6.1,3.58,10.19,10.21,10.19,17.79c0,5.32-2.01,10.17-5.32,13.82l-6.35-5.67
						c1.96-2.15,3.16-5.01,3.16-8.15c0-4.48-2.43-8.38-6.04-10.47L262.39,130.73z"/>
				</g>
				<path class="st11" d="M264.78,181.66h-72.51c-1.37,0-2.48-1.11-2.48-2.48v-0.41c0-1.37,1.11-2.48,2.48-2.48h72.51
					c1.37,0,2.48,1.11,2.48,2.48v0.41C267.26,180.55,266.15,181.66,264.78,181.66z M264.78,185.47h-72.51
					c-1.37,0-2.48,1.11-2.48,2.48v0.41c0,1.37,1.11,2.48,2.48,2.48h72.51c1.37,0,2.48-1.11,2.48-2.48v-0.41
					C267.26,186.58,266.15,185.47,264.78,185.47z M264.78,194.64h-72.51c-1.37,0-2.48,1.11-2.48,2.48v0.41
					c0,1.37,1.11,2.48,2.48,2.48h72.51c1.37,0,2.48-1.11,2.48-2.48v-0.41C267.26,195.75,266.15,194.64,264.78,194.64z
					 M264.78,203.81h-72.51c-1.37,0-2.48,1.11-2.48,2.48v0.41c0,1.37,1.11,2.48,2.48,2.48h72.51c1.37,0,2.48-1.11,2.48-2.48v-0.41
					C267.26,204.92,266.15,203.81,264.78,203.81z"/>
				<g>
					<path class="st11" d="M399.54,216.85h-68.5c-3.87,0-7-3.13-7-7v-65.48c0-3.87,3.13-7,7-7h68.5c3.87,0,7,3.13,7,7v65.48
						C406.54,213.71,403.41,216.85,399.54,216.85z"/>
					<path class="st1" d="M355.41,172.83h-21.06c-2.27,0-4.1-1.84-4.1-4.1v-21.06c0-2.27,1.84-4.1,4.1-4.1h21.06
						c2.27,0,4.1,1.84,4.1,4.1v21.06C359.51,171,357.68,172.83,355.41,172.83z M400.34,146.72v-0.2c0-0.68-0.56-1.24-1.24-1.24
						h-34.22c-0.68,0-1.24,0.56-1.24,1.24v0.2c0,0.68,0.56,1.24,1.24,1.24h34.22C399.78,147.96,400.34,147.4,400.34,146.72z
						 M400.34,154.24v0.2c0,0.68-0.56,1.24-1.24,1.24h-34.22c-0.68,0-1.24-0.56-1.24-1.24v-0.2c0-0.68,0.56-1.24,1.24-1.24h34.22
						C399.78,153,400.34,153.55,400.34,154.24z M400.34,161.96v0.2c0,0.68-0.56,1.24-1.24,1.24h-34.22c-0.68,0-1.24-0.56-1.24-1.24
						v-0.2c0-0.68,0.56-1.24,1.24-1.24h34.22C399.78,160.72,400.34,161.28,400.34,161.96z M400.34,169.68v0.2
						c0,0.68-0.56,1.24-1.24,1.24h-34.22c-0.68,0-1.24-0.56-1.24-1.24v-0.2c0-0.68,0.56-1.24,1.24-1.24h34.22
						C399.78,168.44,400.34,169,400.34,169.68z"/>
					<path class="st1" d="M355.41,210.54h-21.06c-2.27,0-4.1-1.84-4.1-4.1v-21.06c0-2.27,1.84-4.1,4.1-4.1h21.06
						c2.27,0,4.1,1.84,4.1,4.1v21.06C359.51,208.71,357.68,210.54,355.41,210.54z M400.34,184.42v-0.2c0-0.68-0.56-1.24-1.24-1.24
						h-34.22c-0.68,0-1.24,0.56-1.24,1.24v0.2c0,0.68,0.56,1.24,1.24,1.24h34.22C399.78,185.66,400.34,185.11,400.34,184.42z
						 M400.34,191.94v0.2c0,0.68-0.56,1.24-1.24,1.24h-34.22c-0.68,0-1.24-0.56-1.24-1.24v-0.2c0-0.68,0.56-1.24,1.24-1.24h34.22
						C399.78,190.7,400.34,191.26,400.34,191.94z M400.34,199.67v0.2c0,0.68-0.56,1.24-1.24,1.24h-34.22
						c-0.68,0-1.24-0.56-1.24-1.24v-0.2c0-0.68,0.56-1.24,1.24-1.24h34.22C399.78,198.43,400.34,198.98,400.34,199.67z
						 M400.34,207.39v0.2c0,0.68-0.56,1.24-1.24,1.24h-34.22c-0.68,0-1.24-0.56-1.24-1.24v-0.2c0-0.68,0.56-1.24,1.24-1.24h34.22
						C399.78,206.15,400.34,206.71,400.34,207.39z"/>
				</g>
				<g>
					<g>
						<path class="st20" d="M287.47,193.9c6.47,2.79,14.71,2.92,20.16,1.85l-1.34-7.52l-17.83-15.86L287.47,193.9z"/>
						<path class="st21" d="M291.25,195.2c-1.3-0.35-2.57-0.77-3.79-1.3l0.99-21.52l3.74,3.32
							C291.48,182.17,291.28,188.68,291.25,195.2z"/>
						<path class="st22" d="M297.09,196.21c3.85,0.35,7.6,0.12,10.54-0.45l-1.34-7.52l-10.92-6.06
							C295.69,185.79,296.27,192.64,297.09,196.21z"/>
						<path class="st22" d="M300.1,156.83c5.66-2.05,10.15-0.72,14.5,6.74c4.35,7.46,10.38,13.93,7.51,16.24
							c-2.87,2.3-8.48,9.03-16.98,8.39C292.41,187.23,283.56,162.8,300.1,156.83z"/>
						<g>
							<path class="st23" d="M315.68,182.59L315.68,182.59c-2.8,1.56-6.33,0.56-7.89-2.24l-18.21-32.68l14.47-8.07l14.2,35.79
								C319.32,178.09,318.22,181.17,315.68,182.59z"/>
							<linearGradient id="SVGID_4_" gradientUnits="userSpaceOnUse" x1="279.6292" y1="148.7583" x2="294.9545" y2="140.3659">
								<stop  offset="1.161860e-03" style="stop-color:#00D1FF"/>
								<stop  offset="0.9958" style="stop-color:#0162FF"/>
							</linearGradient>
							<path class="st24" d="M293.3,151.32l-3.39,1.89c-3.93,2.19-8.9,0.78-11.09-3.15l-0.65-1.17c-2.19-3.93-0.78-8.9,3.15-11.09
								l3.39-1.89c3.93-2.19,8.9-0.78,11.09,3.15l0.65,1.17C298.65,144.16,297.24,149.13,293.3,151.32z"/>
							<linearGradient id="SVGID_5_" gradientUnits="userSpaceOnUse" x1="272.722" y1="152.9856" x2="290.9889" y2="142.61">
								<stop  offset="1.161860e-03" style="stop-color:#00D1FF"/>
								<stop  offset="0.9958" style="stop-color:#0162FF"/>
							</linearGradient>
							<path class="st25" d="M281.98,143.37l6.27-3.49c3.14-1.75,7.1-0.62,8.85,2.52l1.98,3.54c-0.09-0.83-0.35-1.67-0.78-2.44
								l-2.26-4.06c-1.75-3.14-5.71-4.27-8.85-2.52l-6.27,3.49c-3.14,1.75-4.27,5.71-2.52,8.85l0.29,0.51
								C278.4,147.25,279.62,144.68,281.98,143.37z"/>
							<linearGradient id="SVGID_6_" gradientUnits="userSpaceOnUse" x1="290.9649" y1="145.5357" x2="275.5476" y2="155.3999">
								<stop  offset="1.161860e-03" style="stop-color:#00D1FF"/>
								<stop  offset="0.9958" style="stop-color:#0162FF"/>
							</linearGradient>
							<path class="st26" d="M297.26,141.67l-2.26-4.06c-0.29-0.52-0.65-0.99-1.05-1.39l1.18,2.12c1.75,3.14,0.62,7.1-2.52,8.85
								l-6.27,3.49c-2.61,1.46-5.8,0.91-7.8-1.12l1.08,1.93c1.75,3.14,5.71,4.26,8.85,2.52l6.27-3.49
								C297.88,148.77,299.01,144.8,297.26,141.67z"/>
							<linearGradient id="SVGID_7_" gradientUnits="userSpaceOnUse" x1="285.8047" y1="145.4424" x2="301.7972" y2="136.4604">
								<stop  offset="1.161860e-03" style="stop-color:#00D1FF"/>
								<stop  offset="0.9958" style="stop-color:#0162FF"/>
							</linearGradient>
							<path class="st27" d="M307.38,147.85l-7.17,3.99c-5,2.79-11.32,0.99-14.1-4.01l-2.23-3.99c-2.79-5-0.99-11.32,4.01-14.1
								l7.17-3.99c5-2.79,11.32-0.99,14.1,4.01l2.23,3.99C314.18,138.75,312.39,145.06,307.38,147.85z"/>
							<linearGradient id="SVGID_8_" gradientUnits="userSpaceOnUse" x1="283.1357" y1="145.2967" x2="303.4485" y2="134.5557">
								<stop  offset="1.161860e-03" style="stop-color:#00D1FF"/>
								<stop  offset="0.9958" style="stop-color:#0162FF"/>
							</linearGradient>
							<path class="st28" d="M288.17,136.36l11.54-6.43c3.79-2.11,8.59-0.75,10.7,3.04l3.96,7.1c-0.14-0.88-0.44-1.76-0.9-2.58
								l-4.66-8.37c-2.11-3.79-6.91-5.16-10.7-3.04l-11.54,6.43c-3.8,2.11-5.16,6.91-3.04,10.7l0.7,1.26
								C283.73,141.31,285.2,138.02,288.17,136.36z"/>
							<linearGradient id="SVGID_9_" gradientUnits="userSpaceOnUse" x1="303.1365" y1="138.0685" x2="284.7236" y2="149.1017">
								<stop  offset="1.161860e-03" style="stop-color:#00D1FF"/>
								<stop  offset="0.9958" style="stop-color:#0162FF"/>
							</linearGradient>
							<path class="st29" d="M312.61,135.93l-4.66-8.36c-0.73-1.31-1.78-2.33-2.99-3.02c0.04,0.07,0.08,0.13,0.12,0.2l4.66,8.36
								c2.11,3.79,0.75,8.59-3.04,10.7l-11.54,6.43c-2.49,1.39-5.4,1.28-7.71-0.03c2.17,3.64,6.85,4.92,10.58,2.84l11.54-6.43
								C313.36,144.52,314.73,139.73,312.61,135.93z"/>
							<linearGradient id="SVGID_10_" gradientUnits="userSpaceOnUse" x1="293.824" y1="143.1622" x2="330.8828" y2="120.7266">
								<stop  offset="6.931090e-03" style="stop-color:#FF9A25"/>
								<stop  offset="1" style="stop-color:#FFE000"/>
							</linearGradient>
							<path class="st30" d="M356.07,143.08c-20.62,1.33-32.05-1.33-44.74,5.73c-8.63,4.81-23.63-22.15-15-26.95
								c13.81-7.68,17.45-18.42,28.4-35.01L356.07,143.08z"/>
							<linearGradient id="SVGID_11_" gradientUnits="userSpaceOnUse" x1="289.9789" y1="135.2296" x2="323.4136" y2="107.1751">
								<stop  offset="0" style="stop-color:#FFE000"/>
								<stop  offset="0.9996" style="stop-color:#FFE000;stop-opacity:0"/>
							</linearGradient>
							<path class="st31" d="M298.57,128.65c13.81-7.68,18.15-16.91,29.09-33.5l-1.32-3.02c-10.94,16.59-15.28,25.82-29.09,33.5
								c-3.99,2.22-1.96,8.75,1.18,15.11C296.39,135.33,295.2,130.52,298.57,128.65z"/>
							<linearGradient id="SVGID_12_" gradientUnits="userSpaceOnUse" x1="289.364" y1="147.7933" x2="336.9218" y2="133.6918">
								<stop  offset="6.931090e-03" style="stop-color:#FF9A25"/>
								<stop  offset="1" style="stop-color:#FFE000"/>
							</linearGradient>
							<path class="st32" d="M352.84,137.28c-19.94,1.18-31.2-1.27-43.66,5.66c-4.7,2.61-11.28-4.17-14.91-11.68
								c2.23,9.19,11.15,20.84,17.07,17.54c12.68-7.06,24.12-4.4,44.74-5.73L352.84,137.28z"/>
							<linearGradient id="SVGID_13_" gradientUnits="userSpaceOnUse" x1="319.9604" y1="126.2067" x2="353.1404" y2="107.9576">
								<stop  offset="6.931090e-03" style="stop-color:#FF9A25"/>
								<stop  offset="1" style="stop-color:#FFE000"/>
							</linearGradient>
							<path class="st33" d="M349.44,109.93c8.65,15.53,11.62,30.38,6.63,33.16c-4.99,2.78-16.06-7.55-24.71-23.08
								c-8.65-15.53-11.62-30.38-6.63-33.16C329.72,84.06,340.79,94.4,349.44,109.93z"/>
							<linearGradient id="SVGID_14_" gradientUnits="userSpaceOnUse" x1="322.3099" y1="116.6705" x2="354.2126" y2="116.6705">
								<stop  offset="6.931090e-03" style="stop-color:#FF9A25"/>
								<stop  offset="1" style="stop-color:#FFE000"/>
							</linearGradient>
							<path class="st34" d="M353.83,143.52c1.55-5.7-1.72-17.72-8.67-30.18c-7.53-13.51-16.88-23.08-22.47-23.51
								c-1.55,5.7,1.72,17.72,8.67,30.18C338.89,133.51,348.24,143.09,353.83,143.52z"/>
							<linearGradient id="SVGID_15_" gradientUnits="userSpaceOnUse" x1="330.8427" y1="99.9563" x2="366.3506" y2="159.7845">
								<stop  offset="1.161860e-03" style="stop-color:#00D1FF"/>
								<stop  offset="0.9958" style="stop-color:#0162FF"/>
							</linearGradient>
							<path class="st35" d="M352.05,108.47c-9.74-17.48-23.08-28.63-29.78-24.9c-6.7,3.73-4.23,20.94,5.51,38.42
								c9.74,17.48,23.08,28.63,29.78,24.9C364.26,143.16,361.79,125.96,352.05,108.47z M356.07,143.08
								c-4.99,2.78-16.06-7.55-24.71-23.08c-8.65-15.53-11.62-30.38-6.63-33.16c4.99-2.78,16.06,7.55,24.71,23.08
								C358.1,125.46,361.06,140.3,356.07,143.08z"/>
							<g class="st36">
								<linearGradient id="SVGID_16_" gradientUnits="userSpaceOnUse" x1="323.351" y1="111.9466" x2="359.2782" y2="111.9466">
									<stop  offset="1.161860e-03" style="stop-color:#00D1FF"/>
									<stop  offset="0.9958" style="stop-color:#0162FF"/>
								</linearGradient>
								<path class="st37" d="M350.23,107.83c-8.65-15.53-19.72-25.86-24.71-23.08c-1.1,0.61-1.81,1.82-2.17,3.48
									c0.36-0.6,0.82-1.07,1.38-1.39c4.99-2.78,16.06,7.55,24.71,23.08c6.74,12.1,10.03,23.79,8.8,29.67
									C361.11,134.85,357.91,121.61,350.23,107.83z"/>
								<linearGradient id="SVGID_17_" gradientUnits="userSpaceOnUse" x1="318.497" y1="116.9215" x2="360.7986" y2="116.9215">
									<stop  offset="1.161860e-03" style="stop-color:#00D1FF"/>
									<stop  offset="0.9958" style="stop-color:#0162FF"/>
								</linearGradient>
								<path class="st38" d="M358.34,144.8c-6.7,3.73-20.03-7.41-29.78-24.9c-7.44-13.34-10.63-26.52-8.75-33.67
									c-3.31,6.41-0.27,20.99,7.97,35.77c9.74,17.48,23.08,28.63,29.78,24.9c1.59-0.88,2.66-2.53,3.24-4.75
									C360.19,143.32,359.38,144.22,358.34,144.8z"/>
							</g>
							<linearGradient id="SVGID_18_" gradientUnits="userSpaceOnUse" x1="338.036" y1="116.0407" x2="327.806" y2="123.1535">
								<stop  offset="1.161860e-03" style="stop-color:#00D1FF"/>
								<stop  offset="0.9958" style="stop-color:#0162FF"/>
							</linearGradient>
							<path class="st39" d="M331.36,120c1.89,3.4,3.9,6.55,5.94,9.36l8.75-4.88l-10.78-19.34l-8.75,4.88
								C327.84,113.24,329.47,116.61,331.36,120z"/>
							<linearGradient id="SVGID_19_" gradientUnits="userSpaceOnUse" x1="338.2384" y1="106.2808" x2="325.8488" y2="114.5575">
								<stop  offset="1.161860e-03" style="stop-color:#00D1FF"/>
								<stop  offset="0.9958" style="stop-color:#0162FF"/>
							</linearGradient>
							<path class="st40" d="M328.89,115.26c0,0-1.66-3.53-2.37-5.23l8.75-4.88l2.92,5.24L328.89,115.26z"/>
							<linearGradient id="SVGID_20_" gradientUnits="userSpaceOnUse" x1="353.1059" y1="116.9838" x2="333.3202" y2="127.7984">
								<stop  offset="1.161860e-03" style="stop-color:#00D1FF"/>
								<stop  offset="0.9958" style="stop-color:#0162FF"/>
							</linearGradient>
							<path class="st41" d="M342.19,119.21l-8.51,4.74c1.18,1.91,2.39,3.72,3.62,5.41l8.75-4.88L342.19,119.21z"/>
							<linearGradient id="SVGID_21_" gradientUnits="userSpaceOnUse" x1="338.2777" y1="110.2257" x2="351.5496" y2="135.8018">
								<stop  offset="1.161860e-03" style="stop-color:#00D1FF"/>
								<stop  offset="0.9958" style="stop-color:#0162FF"/>
							</linearGradient>
							<path class="st42" d="M343.77,113.09c2.98,5.34,4,10.44,2.28,11.4c-1.72,0.96-5.52-2.6-8.5-7.94
								c-2.98-5.34-4-10.44-2.28-11.4C336.99,104.19,340.79,107.75,343.77,113.09z"/>
						</g>
						<g>
							<path class="st21" d="M320.54,173.77c2.7-0.69,5.48,4.31,2.02,6.39c-3.88,2.33-7.42,2.99-8.47,3.14
								c-2.72,0.4-3.91-3.26-1.19-5.39C315.62,175.78,318.24,174.36,320.54,173.77z"/>
							<path class="st20" d="M314.09,183.3c1.05-0.15,4.59-0.81,8.47-3.14c1.45-0.87,1.8-2.24,1.53-3.5
								c-0.19,0.17-0.4,0.34-0.64,0.48c-3.87,2.33-7.42,2.99-8.47,3.14c-1.4,0.21-2.39-0.66-2.66-1.84
								C310.37,180.59,311.59,183.66,314.09,183.3z"/>
							<path class="st21" d="M318.88,167.3c3.18-0.82,6.47,5.09,2.38,7.55c-4.58,2.75-8.76,3.53-10,3.71
								c-3.21,0.47-4.62-3.85-1.41-6.36C313.06,169.68,316.16,167.99,318.88,167.3z"/>
							<path class="st20" d="M311.26,178.55c1.24-0.18,5.42-0.96,10-3.71c1.79-1.08,2.17-2.82,1.75-4.37
								c-0.24,0.82-0.8,1.58-1.75,2.15c-4.58,2.75-8.76,3.53-10,3.71c-1.52,0.22-2.64-0.63-3.05-1.86
								C307.53,176.68,308.91,178.9,311.26,178.55z"/>
							<path class="st21" d="M314.24,159.8c3.39-1.78,8.71,4.02,4.74,7.91c-4.44,4.35-8.98,6.36-10.33,6.9
								c-3.51,1.4-6.28-3.12-3.31-6.83C308.3,164.07,311.35,161.32,314.24,159.8z"/>
							<path class="st20" d="M308.65,174.61c1.35-0.54,5.89-2.55,10.33-6.9c1.49-1.46,1.67-3.18,1.14-4.67
								c-0.22,0.58-0.6,1.16-1.14,1.69c-4.44,4.35-8.98,6.36-10.33,6.9c-1.96,0.78-3.69-0.28-4.32-2.01
								C303.28,172.79,305.7,175.78,308.65,174.61z"/>
							<path class="st21" d="M308.73,153.99c3.15-1.66,8.09,3.73,4.4,7.34c-4.13,4.04-7.62,6.17-8.83,6.78
								c-3.43,1.74-6.51-2.2-3.76-5.64C303.29,159.02,306.04,155.4,308.73,153.99z"/>
							<path class="st20" d="M304.3,168.11c1.21-0.61,4.7-2.75,8.83-6.78c1.78-1.74,1.55-3.9,0.48-5.48
								c-0.02,0.96-0.41,1.94-1.31,2.82c-4.12,4.04-7.62,6.17-8.83,6.78c-1.57,0.8-3.08,0.4-3.96-0.6
								C299.23,167.43,301.66,169.46,304.3,168.11z"/>
							<path class="st21" d="M305.06,150.3c3.23,0.01,5.81,6.39-4.48,11.3c0.2,2.73-1.74,4.51,0.18,6.84
								c2.93,3.55,4.46,5.55,3.84,9.36c-0.64,3.93-5.43,6.42-10.12,3.97c-4.81-2.51-11.54-14.51,0.64-25.32
								c1.12-1,6.53-3.73,7.01-4.23C303.69,150.6,304.18,150.29,305.06,150.3z"/>
							<path class="st20" d="M294.48,181.77c4.69,2.44,9.48-0.05,10.12-3.97c0.62-3.81-0.91-5.81-3.84-9.36
								c-1.92-2.33,0.02-4.11-0.18-6.84c10.28-4.91,7.71-11.29,4.48-11.3c-0.07,0-0.14,0-0.21,0.01c1.38,2.13,0.65,6.43-6.76,9.97
								c0.2,2.72-1.74,4.51,0.19,6.84c2.93,3.55,4.46,5.55,3.84,9.36C301.53,180.03,300.06,181.69,294.48,181.77z"/>
						</g>
					</g>
					<rect x="284.85" y="188.44" class="st1" width="23.56" height="35.14"/>
					<linearGradient id="SVGID_22_" gradientUnits="userSpaceOnUse" x1="296.6309" y1="204.3679" x2="296.6309" y2="252.7845">
						<stop  offset="0" style="stop-color:#085EFF"/>
						<stop  offset="0.9981" style="stop-color:#0E0092"/>
					</linearGradient>
					<rect x="282.42" y="192.75" class="st43" width="28.41" height="30.83"/>
					<linearGradient id="SVGID_23_" gradientUnits="userSpaceOnUse" x1="299.5709" y1="231.7241" x2="299.5709" y2="191.767">
						<stop  offset="1.161860e-03" style="stop-color:#00D1FF"/>
						<stop  offset="0.9958" style="stop-color:#0162FF"/>
					</linearGradient>
					<path class="st44" d="M310.84,223.57H288.3c5.95-9.05,10.09-18.01,12.75-30.83h9.79V223.57z"/>
				</g>
				<linearGradient id="SVGID_24_" gradientUnits="userSpaceOnUse" x1="318.3716" y1="122.9461" x2="393.2903" y2="86.2449">
					<stop  offset="6.931090e-03" style="stop-color:#FF9A25"/>
					<stop  offset="1" style="stop-color:#FFE000"/>
				</linearGradient>
				<path class="st45" d="M348.39,90.63c-0.43,0-0.87-0.12-1.26-0.37c-1.09-0.7-1.4-2.14-0.7-3.23l20.74-32.24
					c0.7-1.09,2.15-1.4,3.23-0.7c1.09,0.7,1.4,2.14,0.7,3.23l-20.74,32.24C349.91,90.25,349.15,90.63,348.39,90.63z M362.85,104.86
					l34.28-17.16c1.15-0.58,1.62-1.98,1.04-3.14c-0.58-1.15-1.98-1.62-3.14-1.04l-34.28,17.16c-1.15,0.58-1.62,1.98-1.04,3.14
					c0.21,0.42,0.52,0.74,0.9,0.96C361.27,105.17,362.12,105.23,362.85,104.86z M367.74,125.93l38.3-1.52
					c1.29-0.05,2.29-1.14,2.24-2.43c-0.05-1.29-1.14-2.29-2.43-2.24l-38.3,1.52c-1.29,0.05-2.29,1.14-2.24,2.43
					c0.02,0.46,0.17,0.89,0.42,1.25C366.18,125.57,366.92,125.97,367.74,125.93z"/>
				<path class="st1" d="M184.8,106.26c0,0.78-0.64,1.42-1.42,1.42c-0.78,0-1.42-0.64-1.42-1.42s0.64-1.42,1.42-1.42
					C184.17,104.84,184.8,105.47,184.8,106.26z M188.01,104.84c-0.78,0-1.42,0.64-1.42,1.42s0.64,1.42,1.42,1.42
					c0.78,0,1.42-0.64,1.42-1.42S188.8,104.84,188.01,104.84z M192.64,104.84c-0.78,0-1.42,0.64-1.42,1.42s0.64,1.42,1.42,1.42
					c0.78,0,1.42-0.64,1.42-1.42S193.42,104.84,192.64,104.84z"/>
			</g>
			<g>
				<path class="st46" d="M192.41,258.5h-55.59c-6.3,0-11.41-5.11-11.41-11.41v-31c0-6.3,5.11-11.41,11.41-11.41h55.59
					c6.3,0,11.41,5.11,11.41,11.41v31C203.82,253.4,198.71,258.5,192.41,258.5z"/>
				<linearGradient id="SVGID_25_" gradientUnits="userSpaceOnUse" x1="160.3758" y1="183.2578" x2="160.3758" y2="255.3921">
					<stop  offset="0" style="stop-color:#FF6570"/>
					<stop  offset="1" style="stop-color:#EC374F"/>
				</linearGradient>
				<path class="st47" d="M188.17,258.5h-55.59c-6.3,0-11.41-5.11-11.41-11.41v-31c0-6.3,5.11-11.41,11.41-11.41h55.59
					c6.3,0,11.41,5.11,11.41,11.41v31C199.58,253.4,194.47,258.5,188.17,258.5z"/>
				<path class="st1" d="M149.18,242.82v-22.45c0-1.83,2.02-2.94,3.57-1.96l17.75,11.23c1.44,0.91,1.44,3.02,0,3.93l-17.75,11.23
					C151.2,245.77,149.18,244.65,149.18,242.82z"/>
			</g>
			<g>
				<path class="st46" d="M140.13,135.67h22.79c1.79,0,3.24,1.45,3.24,3.24v15.48c0,1.79-1.45,3.24-3.24,3.24h-1.66l3.58,3.64
					l-9.33-3.64h-15.38c-1.79,0-3.24-1.45-3.24-3.24v-15.48C136.88,137.12,138.33,135.67,140.13,135.67z"/>
				<path class="st1" d="M138.49,155.93h21.69c2.1,0,3.79-1.7,3.79-3.79v-14.38c0-2.09-1.7-3.79-3.79-3.79h-21.69
					c-2.09,0-3.79,1.7-3.79,3.79v14.38C134.7,154.23,136.39,155.93,138.49,155.93z"/>
				<polyline class="st1" points="157.99,154.83 162.65,159.57 150.51,154.83 				"/>
				<path class="st11" d="M160.8,141.33h-22.92c-0.47,0-0.86-0.38-0.86-0.86s0.38-0.86,0.86-0.86h22.92c0.47,0,0.86,0.38,0.86,0.86
					S161.27,141.33,160.8,141.33z M161.65,144.94c0-0.47-0.38-0.86-0.86-0.86h-22.92c-0.47,0-0.86,0.38-0.86,0.86
					c0,0.47,0.38,0.86,0.86,0.86h22.92C161.27,145.8,161.65,145.41,161.65,144.94z M161.65,149.41c0-0.47-0.38-0.86-0.86-0.86
					h-22.92c-0.47,0-0.86,0.38-0.86,0.86c0,0.47,0.38,0.86,0.86,0.86h22.92C161.27,150.26,161.65,149.88,161.65,149.41z"/>
			</g>
			<g>
				<path class="st46" d="M476.28,68.99H453.5c-1.79,0-3.24,1.45-3.24,3.24v15.48c0,1.79,1.45,3.24,3.24,3.24h1.66l-3.58,3.64
					l9.33-3.64h15.38c1.79,0,3.24-1.45,3.24-3.24V72.23C479.53,70.44,478.08,68.99,476.28,68.99z"/>
				<path class="st1" d="M473.21,89.25h-21.69c-2.09,0-3.79-1.7-3.79-3.79V71.07c0-2.1,1.7-3.79,3.79-3.79h21.69
					c2.09,0,3.79,1.7,3.79,3.79v14.38C477,87.55,475.3,89.25,473.21,89.25z"/>
				<polyline class="st1" points="453.7,88.15 449.04,92.89 461.19,88.15 				"/>
				<path class="st11" d="M450.05,73.8c0-0.47,0.38-0.86,0.86-0.86h22.92c0.47,0,0.86,0.38,0.86,0.86s-0.38,0.86-0.86,0.86H450.9
					C450.43,74.65,450.05,74.27,450.05,73.8z M450.9,79.12h22.92c0.47,0,0.86-0.38,0.86-0.86c0-0.47-0.38-0.86-0.86-0.86H450.9
					c-0.47,0-0.86,0.38-0.86,0.86C450.05,78.74,450.43,79.12,450.9,79.12z M450.9,83.58h22.92c0.47,0,0.86-0.38,0.86-0.86
					c0-0.47-0.38-0.86-0.86-0.86H450.9c-0.47,0-0.86,0.38-0.86,0.86C450.05,83.2,450.43,83.58,450.9,83.58z"/>
			</g>
			<g>
				<path class="st1" d="M499.61,153.6v-3.19h-1.35c-0.08-0.24-0.18-0.47-0.29-0.7l0.96-0.96l-2.25-2.25l-0.96,0.96
					c-0.22-0.11-0.46-0.21-0.7-0.29v-1.35h-3.19v1.35c-0.24,0.08-0.47,0.18-0.7,0.29l-0.96-0.96l-2.25,2.25l0.96,0.96
					c-0.11,0.22-0.21,0.46-0.29,0.7h-1.35v3.19h1.35c0.08,0.24,0.18,0.47,0.29,0.7l-0.96,0.96l2.25,2.25l0.96-0.96
					c0.22,0.11,0.46,0.21,0.7,0.29v1.35h3.19v-1.35c0.24-0.08,0.47-0.18,0.7-0.29l0.96,0.96l2.25-2.25l-0.96-0.96
					c0.11-0.22,0.21-0.46,0.29-0.7H499.61z M493.42,155.22c-1.77,0-3.21-1.44-3.21-3.21s1.44-3.21,3.21-3.21
					c1.77,0,3.21,1.44,3.21,3.21S495.2,155.22,493.42,155.22z M503.8,167.02v-1.67h-0.71c-0.04-0.13-0.09-0.25-0.15-0.37l0.5-0.5
					l-1.18-1.18l-0.5,0.5c-0.12-0.06-0.24-0.11-0.37-0.15v-0.71h-1.67v0.71c-0.13,0.04-0.25,0.09-0.37,0.15l-0.5-0.5l-1.18,1.18
					l0.5,0.5c-0.06,0.12-0.11,0.24-0.15,0.37h-0.71v1.67h0.71c0.04,0.13,0.09,0.25,0.15,0.37l-0.5,0.5l1.18,1.18l0.5-0.5
					c0.12,0.06,0.24,0.11,0.37,0.15v0.71h1.67v-0.71c0.13-0.04,0.25-0.09,0.37-0.15l0.5,0.5l1.18-1.18l-0.5-0.5
					c0.06-0.12,0.11-0.24,0.15-0.37H503.8z M500.55,167.87c-0.93,0-1.68-0.75-1.68-1.68c0-0.93,0.75-1.68,1.68-1.68
					s1.69,0.75,1.69,1.68C502.24,167.11,501.48,167.87,500.55,167.87z"/>
				<path class="st1" d="M107.74,179.06l-1.72-2.61l-1.11,0.73c-0.2-0.16-0.4-0.29-0.62-0.42l0.27-1.3l-3.07-0.63l-0.27,1.3
					c-0.25,0.03-0.49,0.07-0.73,0.14l-0.73-1.11l-2.61,1.72l0.73,1.11c-0.16,0.2-0.29,0.4-0.42,0.62l-1.3-0.27l-0.63,3.07l1.3,0.27
					c0.03,0.25,0.07,0.49,0.14,0.73l-1.11,0.73l1.72,2.61l1.11-0.73c0.2,0.16,0.4,0.29,0.62,0.42l-0.27,1.3l3.07,0.63l0.27-1.3
					c0.25-0.03,0.49-0.07,0.73-0.14l0.73,1.11l2.61-1.72l-0.73-1.11c0.16-0.2,0.29-0.4,0.42-0.62l1.3,0.27l0.63-3.07l-1.3-0.27
					c-0.03-0.25-0.07-0.49-0.14-0.73L107.74,179.06z M103.54,183.73c-1.45,0.96-3.41,0.55-4.37-0.9c-0.96-1.45-0.55-3.41,0.9-4.37
					c1.45-0.96,3.41-0.55,4.37,0.9C105.4,180.82,104.99,182.77,103.54,183.73z M91.76,183.38l-1.08-1.64l-0.7,0.46
					c-0.12-0.1-0.25-0.18-0.39-0.26l0.17-0.82l-1.93-0.4l-0.17,0.82c-0.15,0.02-0.31,0.05-0.46,0.09l-0.46-0.7L85.1,182l0.46,0.7
					c-0.1,0.12-0.18,0.25-0.26,0.39l-0.82-0.17l-0.4,1.93l0.82,0.17c0.02,0.15,0.05,0.31,0.09,0.46l-0.7,0.46l1.08,1.64l0.7-0.46
					c0.12,0.1,0.25,0.18,0.39,0.26l-0.17,0.82l1.93,0.4l0.17-0.82c0.15-0.02,0.31-0.05,0.46-0.09l0.46,0.7l1.64-1.08l-0.46-0.7
					c0.1-0.12,0.18-0.25,0.26-0.39l0.82,0.17l0.4-1.93l-0.82-0.17c-0.02-0.15-0.05-0.31-0.09-0.46L91.76,183.38z M89.12,186.31
					c-0.91,0.6-2.14,0.35-2.75-0.57c-0.6-0.91-0.35-2.14,0.57-2.75c0.91-0.6,2.14-0.35,2.75,0.57
					C90.28,184.48,90.03,185.71,89.12,186.31z"/>
				<path class="st1" d="M269.43,70.09l-2.34-3.55l-1.5,0.99c-0.27-0.21-0.55-0.4-0.84-0.56l0.36-1.77l-4.16-0.86l-0.36,1.77
					c-0.33,0.04-0.66,0.1-0.99,0.19l-0.99-1.5l-3.55,2.34l0.99,1.5c-0.21,0.27-0.4,0.55-0.56,0.84l-1.77-0.36l-0.86,4.16l1.77,0.36
					c0.04,0.33,0.1,0.66,0.19,0.99l-1.5,0.99l2.34,3.55l1.5-0.99c0.27,0.21,0.55,0.4,0.84,0.56l-0.36,1.77l4.16,0.86l0.36-1.77
					c0.33-0.04,0.66-0.1,0.99-0.19l0.99,1.5l3.55-2.34l-0.99-1.5c0.21-0.27,0.4-0.55,0.56-0.84l1.77,0.36l0.86-4.16l-1.77-0.36
					c-0.04-0.33-0.1-0.66-0.19-0.99L269.43,70.09z M263.73,76.43c-1.98,1.3-4.63,0.75-5.93-1.22c-1.3-1.98-0.75-4.63,1.22-5.93
					c1.98-1.3,4.63-0.75,5.93,1.22C266.25,72.47,265.7,75.13,263.73,76.43z M247.72,75.95l-1.47-2.23l-0.95,0.62
					c-0.17-0.13-0.34-0.25-0.53-0.36l0.23-1.11l-2.62-0.54l-0.23,1.11c-0.21,0.02-0.42,0.06-0.62,0.12l-0.62-0.95l-2.23,1.47
					l0.62,0.95c-0.13,0.17-0.25,0.34-0.36,0.53l-1.11-0.23l-0.54,2.62l1.11,0.23c0.02,0.21,0.06,0.42,0.12,0.62l-0.95,0.62
					l1.47,2.23l0.95-0.62c0.17,0.13,0.34,0.25,0.53,0.36l-0.23,1.11l2.62,0.54l0.23-1.11c0.21-0.02,0.42-0.06,0.62-0.12l0.62,0.95
					l2.23-1.47L246,80.34c0.13-0.17,0.25-0.34,0.36-0.53l1.11,0.23l0.54-2.62l-1.11-0.23c-0.02-0.21-0.06-0.42-0.12-0.62
					L247.72,75.95z M244.13,79.93c-1.24,0.82-2.91,0.47-3.73-0.77c-0.82-1.24-0.47-2.91,0.77-3.73c1.24-0.82,2.91-0.47,3.73,0.77
					C245.72,77.45,245.38,79.12,244.13,79.93z"/>
				<g>
					
						<ellipse transform="matrix(0.9248 -0.3804 0.3804 0.9248 -15.3022 71.7864)" class="st48" cx="173.99" cy="74.61" rx="9.98" ry="9.98"/>
					<g>
						<path class="st1" d="M173.29,82.99v-2.06c-1.18-0.02-2.41-0.39-3.12-0.9l0.49-1.37c0.73,0.49,1.8,0.88,2.94,0.88
							c1.45,0,2.43-0.84,2.43-2c0-1.12-0.8-1.82-2.31-2.43c-2.08-0.82-3.37-1.75-3.37-3.53c0-1.69,1.2-2.98,3.08-3.29v-2.06h1.27
							v1.98c1.23,0.04,2.06,0.37,2.65,0.71l-0.51,1.35c-0.43-0.25-1.27-0.69-2.57-0.69c-1.57,0-2.16,0.94-2.16,1.76
							c0,1.06,0.76,1.59,2.53,2.33c2.1,0.86,3.16,1.92,3.16,3.74c0,1.61-1.12,3.12-3.22,3.47v2.12H173.29z"/>
					</g>
				</g>
				<g>
					
						<ellipse transform="matrix(0.1596 -0.9872 0.9872 0.1596 211.8565 373.2673)" class="st48" cx="325.17" cy="62.2" rx="10.96" ry="10.96"/>
					<g>
						<path class="st1" d="M324.41,71.4v-2.26c-1.3-0.02-2.64-0.43-3.43-0.99l0.54-1.5c0.81,0.54,1.97,0.96,3.23,0.96
							c1.59,0,2.67-0.92,2.67-2.2c0-1.23-0.87-1.99-2.53-2.67c-2.28-0.9-3.7-1.93-3.7-3.88c0-1.86,1.32-3.27,3.38-3.61V53h1.39v2.17
							c1.34,0.05,2.26,0.4,2.91,0.78l-0.56,1.48c-0.47-0.27-1.39-0.76-2.82-0.76c-1.73,0-2.38,1.03-2.38,1.93
							c0,1.17,0.83,1.75,2.78,2.55c2.31,0.94,3.47,2.11,3.47,4.1c0,1.77-1.23,3.43-3.54,3.81v2.33H324.41z"/>
					</g>
				</g>
				<g>
					
						<ellipse transform="matrix(0.1598 -0.9872 0.9872 0.1598 300.885 568.0291)" class="st48" cx="484.12" cy="107.26" rx="8.04" ry="8.04"/>
					<g>
						<path class="st1" d="M483.56,114.02v-1.66c-0.95-0.02-1.94-0.31-2.52-0.72l0.39-1.1c0.59,0.39,1.45,0.71,2.37,0.71
							c1.17,0,1.96-0.67,1.96-1.61c0-0.9-0.64-1.46-1.86-1.96c-1.68-0.66-2.71-1.41-2.71-2.84c0-1.37,0.97-2.4,2.48-2.65v-1.66h1.02
							v1.6c0.99,0.03,1.66,0.3,2.14,0.58l-0.41,1.09c-0.35-0.2-1.02-0.56-2.07-0.56c-1.27,0-1.74,0.76-1.74,1.41
							c0,0.86,0.61,1.28,2.04,1.88c1.69,0.69,2.55,1.55,2.55,3.01c0,1.3-0.9,2.52-2.6,2.8v1.71H483.56z"/>
					</g>
				</g>
				<g>
					<path class="st48" d="M110.22,216.85c0,3.37-2.73,6.1-6.1,6.1c-3.37,0-6.1-2.73-6.1-6.1c0-3.37,2.73-6.1,6.1-6.1
						C107.49,210.75,110.22,213.48,110.22,216.85z"/>
					<g>
						<path class="st1" d="M103.7,221.97v-1.26c-0.72-0.01-1.47-0.24-1.91-0.55l0.3-0.84c0.45,0.3,1.1,0.54,1.8,0.54
							c0.89,0,1.48-0.51,1.48-1.22c0-0.69-0.49-1.11-1.41-1.48c-1.27-0.5-2.06-1.07-2.06-2.16c0-1.04,0.74-1.82,1.88-2.01v-1.26
							h0.77v1.21c0.75,0.02,1.26,0.22,1.62,0.44l-0.31,0.82c-0.26-0.15-0.77-0.42-1.57-0.42c-0.96,0-1.32,0.57-1.32,1.07
							c0,0.65,0.46,0.97,1.55,1.42c1.28,0.52,1.93,1.17,1.93,2.28c0,0.99-0.69,1.91-1.97,2.12v1.3H103.7z"/>
					</g>
				</g>
				<g>
					
						<ellipse transform="matrix(0.9247 -0.3807 0.3807 0.9247 -39.2786 53.284)" class="st1" cx="115.06" cy="125.94" rx="8.61" ry="8.61"/>
					<path class="st49" d="M115.06,119.4c0.29,1.09,0.44,2.18,0.54,3.27c0.1,1.09,0.13,2.18,0.12,3.27l-0.66-0.66
						c0.96,0.01,1.92,0.05,2.88,0.16c0.96,0.1,1.92,0.24,2.88,0.5c-0.96,0.26-1.92,0.4-2.88,0.5c-0.96,0.11-1.92,0.15-2.88,0.16
						l-0.65,0.01l-0.01-0.67c-0.01-1.09,0.03-2.18,0.12-3.27C114.62,121.58,114.77,120.49,115.06,119.4z"/>
				</g>
				<g>
					<path class="st1" d="M429.22,71.05c0,5.54-4.49,10.02-10.02,10.02c-5.54,0-10.02-4.49-10.02-10.02
						c0-5.54,4.49-10.02,10.02-10.02C424.73,61.03,429.22,65.52,429.22,71.05z"/>
					<path class="st49" d="M425.05,70.76c1.37-2.36,0.57-5.39-1.79-6.76c-2.36-1.37-5.39-0.57-6.76,1.79
						c-1.24,2.14-0.68,4.83,1.2,6.33l-2.82,4.84c-0.2,0.35-0.08,0.79,0.26,0.99c0.35,0.2,0.79,0.08,0.99-0.26l2.82-4.84
						C421.19,73.74,423.81,72.9,425.05,70.76z M419.02,71.3c-1.67-0.97-2.23-3.11-1.26-4.78c0.97-1.67,3.11-2.23,4.78-1.27
						c1.67,0.97,2.23,3.11,1.27,4.78C422.83,71.7,420.69,72.27,419.02,71.3z"/>
				</g>
				<g>
					<path class="st1" d="M488,210.17c0,3.41-2.76,6.17-6.17,6.17s-6.17-2.76-6.17-6.17c0-3.41,2.76-6.17,6.17-6.17
						S488,206.76,488,210.17z"/>
					<path class="st49" d="M484.05,210.38c0.42-0.51,0.65-1.15,0.65-1.81c0-0.82-0.35-1.6-0.97-2.15c-0.61-0.54-1.44-0.8-2.26-0.7
						c-1.24,0.15-2.26,1.11-2.47,2.34c-0.15,0.84,0.07,1.66,0.6,2.31c0.53,0.65,0.81,1.36,0.81,2.07v0.33h-0.07v1.38h2.98v-1.38
						h-0.07v-0.33C483.25,211.73,483.53,211.02,484.05,210.38z M480.06,210c-0.42-0.51-0.59-1.16-0.47-1.83
						c0.16-0.95,0.99-1.73,1.95-1.85c0.66-0.08,1.3,0.12,1.8,0.55c0.49,0.43,0.77,1.05,0.77,1.7c0,0.53-0.18,1.02-0.51,1.43
						c-0.61,0.74-0.93,1.59-0.93,2.44v0.12h-0.3c0.22-0.71,0.59-2.11,0.35-2.55c-0.06-0.11-0.14-0.15-0.2-0.17
						c-0.1-0.03-0.21-0.01-0.31,0.05c-0.1-0.13-0.23-0.2-0.39-0.21c0,0,0,0,0,0c-0.15-0.01-0.28,0.07-0.37,0.21
						c-0.02-0.01-0.03-0.02-0.05-0.02c-0.15-0.06-0.29-0.04-0.41,0.06c-0.3,0.25,0.03,1.63,0.32,2.64H481v-0.12
						C481,211.6,480.68,210.75,480.06,210z M481.61,212.57c-0.32-1.09-0.56-2.26-0.43-2.43c0.02-0.01,0.03-0.03,0.09,0
						c0.02,0.01,0.04,0.02,0.05,0.03c-0.03,0.15-0.03,0.31,0.07,0.4c0.07,0.06,0.17,0.07,0.26,0.03c0.08-0.04,0.13-0.12,0.13-0.21
						c0-0.09-0.05-0.2-0.12-0.29c0.01-0.02,0.02-0.04,0.04-0.07c0.02-0.03,0.05-0.07,0.09-0.07c0.02,0,0.11,0,0.17,0.11
						c-0.07,0.07-0.12,0.15-0.14,0.22c-0.05,0.16,0.01,0.3,0.17,0.34c0.09,0.03,0.18,0.01,0.24-0.06c0.1-0.1,0.11-0.27,0.08-0.42
						c0.05-0.03,0.09-0.04,0.1-0.04c0.01,0,0.02,0.01,0.03,0.03c0.17,0.31-0.12,1.54-0.4,2.42H481.61z"/>
				</g>
			</g>
			<g>
				<path class="st46" d="M249.33,258.5h-49.74c-1.53,0-2.77-1.24-2.77-2.77v-32.74c0-1.53,1.24-2.77,2.77-2.77h49.74
					c1.53,0,2.77,1.24,2.77,2.77v32.74C252.1,257.26,250.86,258.5,249.33,258.5z"/>
				<path class="st50" d="M246.21,258.5h-49.74c-1.53,0-2.77-1.24-2.77-2.77v-32.74c0-1.53,1.24-2.77,2.77-2.77h49.74
					c1.53,0,2.77,1.24,2.77,2.77v32.74C248.99,257.26,247.74,258.5,246.21,258.5z"/>
				<path class="st51" d="M196.41,256.02l24.54-25.59c0.25-0.24,0.62-0.24,0.87,0l23.85,24.99L196.41,256.02z"/>
				<path class="st52" d="M196.41,256.02l23.58-21.68c0.77-0.71,1.95-0.71,2.72,0l23.58,21.68c0.96,0.88,0.34,2.49-0.97,2.49h-47.93
					C196.07,258.5,195.45,256.9,196.41,256.02z"/>
				<path class="st53" d="M219.17,242.47l-23.29-20.35c-0.75-0.66-0.29-1.9,0.71-1.9h49.51c1,0,1.47,1.24,0.71,1.9l-23.29,20.35
					C222.27,243.56,220.42,243.56,219.17,242.47z"/>
				<path class="st51" d="M219.88,245.03l-24.01-22.91h50.94l-24.01,22.91C221.97,245.76,220.72,245.76,219.88,245.03z"/>
			</g>
			<path class="st54" d="M481.57,263.59H112.05c-1.41,0-2.56-1.15-2.56-2.56l0,0c0-1.41,1.15-2.56,2.56-2.56h369.52
				c1.41,0,2.56,1.15,2.56,2.56l0,0C484.12,262.44,482.98,263.59,481.57,263.59z"/>
			<g>
				<g>
					<g>
						<polygon class="st55" points="475.6,168.89 477.5,171.01 484.58,172.11 475.08,174.68 472.49,170.19 						"/>
						<linearGradient id="SVGID_26_" gradientUnits="userSpaceOnUse" x1="487.9857" y1="178.5002" x2="438.6523" y2="133.636">
							<stop  offset="0" style="stop-color:#085EFF"/>
							<stop  offset="0.9981" style="stop-color:#0E0092"/>
						</linearGradient>
						<path class="st56" d="M428.32,133.05c-2.89,8.25,0.01,10.54,5.05,12.22c2,0.67,18.64-0.9,23.62,0.68
							c4.97,1.58,15.5,26.07,15.5,26.07l4.57-2.74c0,0-10.4-28.66-11.91-29.71c-2.35-1.63-16.08-2.98-20.02-4.04
							c-3.95-1.06-7.07-5.1-7.07-5.1L428.32,133.05z"/>
					</g>
					<g>
						<path class="st57" d="M429.68,114.16c0,0,1.12,11.63,2.47,14.06c1.34,2.42,17.15,7.74,18.54,7.84c1.39,0.1,3.64-1,3.64-1
							s3.49,1.25,4.06,0.95c0.57-0.31-3.12-2.95-4.54-3.22c-1.42-0.28-3.57,0.84-3.57,0.84s-12.21-5.08-13.58-7.27
							c-1.37-2.19-2.4-13.03-2.4-13.03L429.68,114.16z"/>
					</g>
					<polygon class="st58" points="432.68,102.78 431.18,106.77 434.97,107.6 435.63,103.1 					"/>
					<path class="st58" d="M431.15,99.85c0.04,0.13,0.07,0.27,0.09,0.41c0.14,1.02,0.45,2.03,1.04,2.88
						c0.63,0.9,1.62,1.59,2.72,1.66c0.99,0.07,1.98-0.37,2.71-1.04c0.73-0.68,1.23-1.57,1.57-2.51c0.53-1.47,1.15-3.29,0.3-4.6
						c-0.41-0.63-2.56-1.68-4.09-2.36c-0.93-0.42-2.02-0.18-2.7,0.58l-1.49,1.68c-0.56,0.62-0.74,1.5-0.47,2.29L431.15,99.85z"/>
					<path class="st59" d="M433.3,95.74c-0.45-0.12-0.95,0.19-1.13,0.62c-0.19,0.43-0.12,0.94,0.08,1.36
						c0.2,0.43,0.51,0.78,0.82,1.14c-0.59,0.85-1.58,1.92-1.46,2.94c-0.8-0.51-0.74-1.15-1.37-1.85c-1.16-1.31-2.96-6.62,1.18-8.16
						c4.45-5.81,10.81,3.06,11.81,2.61c-0.05,1.19-1.09,3.08-3.55,3.36c-1.07,0.12-2.15-0.01-3.07-0.55
						c-0.46-0.27-0.89-0.58-1.4-0.75c-0.37-0.12-0.75,1.47-1.06,1.33C433.84,97.67,433.68,95.84,433.3,95.74z"/>
					<g>
						<polygon class="st55" points="474.1,170.23 476,172.35 483.08,173.45 473.58,176.02 470.99,171.52 						"/>
						<linearGradient id="SVGID_27_" gradientUnits="userSpaceOnUse" x1="483.84" y1="151.1951" x2="427.8118" y2="151.1951">
							<stop  offset="0" style="stop-color:#085EFF"/>
							<stop  offset="0.9981" style="stop-color:#0E0092"/>
						</linearGradient>
						<path class="st60" d="M428.7,131.67c-2.89,8.25-1.87,13.25,3.17,14.93c2,0.67,25.49,0.85,25.49,0.85l13.62,25.89l4.57-2.74
							c0,0-11.29-28.9-12.6-29.97c-1.31-1.07-14.95-2.99-18.89-4.05c-3.95-1.06-5.63-7.54-5.63-7.54L428.7,131.67z"/>
					</g>
					
						<linearGradient id="SVGID_28_" gradientUnits="userSpaceOnUse" x1="475.9369" y1="149.4304" x2="475.9369" y2="102.1427" gradientTransform="matrix(0.9967 0.0809 -0.0809 0.9967 -28.7957 -35.5009)">
						<stop  offset="0.1321" style="stop-color:#00A373"/>
						<stop  offset="1" style="stop-color:#43FFD9"/>
					</linearGradient>
					<path class="st61" d="M435.39,107.09c-3.78-3.21-8.35-1.04-9.16,9.03c-0.8,9.88-0.2,22.95-0.2,22.95
						c6.49,1.52,13.25-0.68,18.93-3.25c0,0-5.29-6.64-6.43-13.14C437.61,117.39,438.44,109.69,435.39,107.09z"/>
					<g>
						<path class="st58" d="M432.44,114.97c-1.21,0.22-2.04,1.34-1.9,2.56c0.4,3.49,1.26,10.12,2.23,11.89
							c1.34,2.42,14.01,7.2,15.4,7.3c0.87,0.06,2.1-0.35,2.88-0.66c0.51-0.2,1.07-0.22,1.59-0.05c1.07,0.35,2.85,0.88,3.24,0.67
							c0.57-0.31-3.12-2.95-4.54-3.22c-0.83-0.16-1.91,0.15-2.66,0.44c-0.62,0.24-1.32,0.19-1.91-0.11
							c-2.4-1.25-8.36-4.48-9.45-6.22c-0.95-1.52-1.74-7.21-2.13-10.55C435.03,115.66,433.77,114.73,432.44,114.97L432.44,114.97z"
							/>
						<path class="st1" d="M431.62,107.56c-4.72,1.29-2.53,11.16-2.53,11.16c2.18,0.78,4.88,0.47,7.85-0.39
							C436.04,115.98,435.88,106.4,431.62,107.56z"/>
					</g>
					<g>
						<path class="st62" d="M463.55,137.64h-18.43c-0.58,0-1.06-0.47-1.06-1.06c0-0.58,0.47-1.06,1.06-1.06h17.52l2.48-16.29
							c0.09-0.58,0.63-0.98,1.21-0.89c0.58,0.09,0.98,0.63,0.89,1.21l-2.62,17.19C464.52,137.26,464.07,137.64,463.55,137.64z"/>
					</g>
				</g>
				<g>
					<path class="st46" d="M455.57,258.5h-56.55c-4.4,0-7.96-3.56-7.96-7.96v-97.12c0-4.4,3.56-7.96,7.96-7.96h56.55
						c4.4,0,7.96,3.56,7.96,7.96v97.12C463.53,254.94,459.97,258.5,455.57,258.5z"/>
					<linearGradient id="SVGID_29_" gradientUnits="userSpaceOnUse" x1="423.43" y1="293.025" x2="423.43" y2="157.6468">
						<stop  offset="6.931090e-03" style="stop-color:#FF9A25"/>
						<stop  offset="1" style="stop-color:#FFE000"/>
					</linearGradient>
					<path class="st63" d="M451.71,258.5h-56.55c-4.4,0-7.96-3.56-7.96-7.96v-97.12c0-4.4,3.56-7.96,7.96-7.96h56.55
						c4.4,0,7.96,3.56,7.96,7.96v97.12C459.67,254.94,456.1,258.5,451.71,258.5z"/>
					<rect x="387.19" y="153.09" class="st1" width="72.48" height="97.79"/>
					<g class="st64">
						<path class="st65" d="M453.03,160.39h-59.21c-0.78,0-1.4-0.63-1.4-1.4l0,0c0-0.78,0.63-1.4,1.4-1.4h59.21
							c0.78,0,1.4,0.63,1.4,1.4l0,0C454.44,159.76,453.81,160.39,453.03,160.39z"/>
						<path class="st65" d="M453.03,166.54h-59.21c-0.78,0-1.4-0.63-1.4-1.4l0,0c0-0.78,0.63-1.4,1.4-1.4h59.21
							c0.78,0,1.4,0.63,1.4,1.4l0,0C454.44,165.91,453.81,166.54,453.03,166.54z"/>
						<path class="st65" d="M453.03,172.68h-59.21c-0.78,0-1.4-0.63-1.4-1.4l0,0c0-0.78,0.63-1.4,1.4-1.4h59.21
							c0.78,0,1.4,0.63,1.4,1.4l0,0C454.44,172.05,453.81,172.68,453.03,172.68z"/>
						<path class="st65" d="M453.03,178.83h-59.21c-0.78,0-1.4-0.63-1.4-1.4l0,0c0-0.78,0.63-1.4,1.4-1.4h59.21
							c0.78,0,1.4,0.63,1.4,1.4l0,0C454.44,178.2,453.81,178.83,453.03,178.83z"/>
						<path class="st66" d="M449.87,229.21h-52.88c-2.52,0-4.57-2.04-4.57-4.57v-38.12c0-2.52,2.04-4.57,4.57-4.57h52.88
							c2.52,0,4.57,2.04,4.57,4.57v38.12C454.44,227.17,452.39,229.21,449.87,229.21z"/>
					</g>
					<path class="st67" d="M451.05,245.62h-55.24c-1.87,0-3.39-1.52-3.39-3.39v-0.56c0-1.87,1.52-3.39,3.39-3.39h55.24
						c1.87,0,3.39,1.52,3.39,3.39v0.56C454.44,244.1,452.92,245.62,451.05,245.62z M453.06,232.78h-59.27
						c-0.76,0-1.37,0.61-1.37,1.37l0,0c0,0.76,0.61,1.37,1.37,1.37h59.27c0.76,0,1.37-0.61,1.37-1.37l0,0
						C454.44,233.4,453.82,232.78,453.06,232.78z"/>
				</g>
			</g>
			<g>
				<g>
					<linearGradient id="SVGID_30_" gradientUnits="userSpaceOnUse" x1="185.1874" y1="182.5823" x2="185.1874" y2="153.2743">
						<stop  offset="6.931090e-03" style="stop-color:#FF9A25"/>
						<stop  offset="1" style="stop-color:#FFE000"/>
					</linearGradient>
					<path class="st68" d="M179,173.59c0,0,7-7.03,9.35-18.35l3.02-0.61c0,0-1.18,14.55-6.02,19.58S179,173.59,179,173.59z"/>
					<path class="st58" d="M189.07,155.05c0,0-1.43-1.05-0.97-2.85c0.46-1.8,1.63-2.03,1.45-1.02c-0.18,1.01,0.28,1.4,0.44,1.81
						c0.45,1.17,0.2,1.84,0.2,1.84L189.07,155.05z"/>
					<path class="st58" d="M179.72,167.56c0.26,0.47-0.53,4.07-0.53,4.07l3.23-0.88l-0.73-3.6L179.72,167.56z"/>
					<path class="st58" d="M180.08,167.84c-0.82,0.13-2.56-0.5-3.3-0.86l-2.54-2.02l-0.25-4.53l5.2-3.58
						C179.19,156.84,186.69,166.82,180.08,167.84z"/>
					<path class="st55" d="M175.14,162.35c3.45-1.69,5.58-5.74,5.01-9.54c-0.84,0.98-2.05,1.55-3.25,2.05
						c-1.19,0.5-2.43,0.96-3.41,1.8c-0.98,0.84-1.67,2.16-1.36,3.42c-1.39,0.42-1.85,2.25-1.48,3.66c0.39,1.49,1.45,2.8,2.84,3.48
						c1.38,0.68,3.35,0.3,4.77-0.3c-1.36-0.4-4.02-1.97-1.83-2.53C175.96,163.36,175.14,162.35,175.14,162.35z"/>
					<path class="st1" d="M177.16,171.67c0.04-0.34,1.14-2.63,1.14-2.63l5.73-0.43l0.33,1.61L177.16,171.67z"/>
					<polygon class="st55" points="184.66,253.08 184.76,255.61 190.64,258.47 181.32,258.37 182.5,252.51 					"/>
					<polygon class="st55" points="165.93,253.07 165.83,255.6 159.95,258.47 169.27,258.36 168.09,252.51 					"/>
					<linearGradient id="SVGID_31_" gradientUnits="userSpaceOnUse" x1="175.2958" y1="202.1645" x2="175.2958" y2="270.6954">
						<stop  offset="0" style="stop-color:#085EFF"/>
						<stop  offset="0.9981" style="stop-color:#0E0092"/>
					</linearGradient>
					<path class="st69" d="M177.14,201.36c0-0.05,0.01-0.11,0.01-0.16l-1.93,0.08l-1.79-0.07c0,0.04,0.01,0.1,0.01,0.14l-8.04,0.33
						v54.1l3.64-0.28c0,0,3.85-24.69,6.25-40.87c2.4,16.18,6.25,40.88,6.25,40.88l3.64,0.28v-54.1L177.14,201.36z"/>
					<path class="st58" d="M209.12,163.3c0,0,0.52-2,1.58-2.11l-0.31,1.18c0,0,1.58-0.95,2.04-1.77c0.46-0.82,1.77,2.24,0.48,3.43
						c-1.3,1.19-2.33,1.19-2.33,1.19L209.12,163.3z"/>
					<linearGradient id="SVGID_32_" gradientUnits="userSpaceOnUse" x1="187.7709" y1="214.83" x2="187.7709" y2="175.7163">
						<stop  offset="6.931090e-03" style="stop-color:#FF9A25"/>
						<stop  offset="1" style="stop-color:#FFE000"/>
					</linearGradient>
					<path class="st70" d="M163.25,208.93c0,0,6.97-33.56,14.12-37.85c2.78-1.66,10.86-0.11,18.16-1.69
						c9.65-2.08,13.72-6.71,13.72-6.71l3.04,1.92c0,0-5.89,8.16-24.52,13.38c-3.91,10.57-0.51,30.94-0.51,30.94
						S170.46,207.55,163.25,208.93z"/>
				</g>
			</g>
			<g>
				<g>
					<linearGradient id="SVGID_33_" gradientUnits="userSpaceOnUse" x1="370.5507" y1="174.7034" x2="360.5276" y2="205.4089">
						<stop  offset="0" style="stop-color:#FF6570"/>
						<stop  offset="1" style="stop-color:#EC374F"/>
					</linearGradient>
					<path class="st71" d="M368.31,206.44c-1.23,0.28-8.57-1.79-11.69-4.37c0,0,4.06-15.08,3.94-18.8s1.89-11.53,4.57-5.69
						C367.82,183.44,368.31,206.44,368.31,206.44z"/>
					<polygon class="st55" points="368.09,252.55 368.25,255.08 362.68,258.5 372.22,258.5 370.82,251.82 					"/>
					<linearGradient id="SVGID_34_" gradientUnits="userSpaceOnUse" x1="368.4253" y1="188.9551" x2="368.4253" y2="241.1696">
						<stop  offset="0" style="stop-color:#085EFF"/>
						<stop  offset="0.9981" style="stop-color:#0E0092"/>
					</linearGradient>
					<path class="st72" d="M374.17,199.82c0.09,4.54-2.73,54.82-2.73,54.82l-3.6,0.64l-5.16-54.93L374.17,199.82z"/>
					<polygon class="st55" points="363.24,252.55 363.4,255.08 357.82,258.5 367.3,258.17 365.97,251.82 					"/>
					<linearGradient id="SVGID_35_" gradientUnits="userSpaceOnUse" x1="364.3947" y1="197.3432" x2="364.3947" y2="256.5153">
						<stop  offset="0" style="stop-color:#085EFF"/>
						<stop  offset="0.9981" style="stop-color:#0E0092"/>
					</linearGradient>
					<path class="st73" d="M369.32,199.82c0.09,4.54-2.73,54.82-2.73,54.82l-3.6,0.64l-3.51-55.35L369.32,199.82z"/>
					<path class="st1" d="M371.01,202.78c-7.78,0.23-11.56-1.89-11.98-2.62s0.17-1.25,0.43-2.25c1.04-3.99,3.61-14.21,3.52-17.19
						c-0.11-3.72,1.89-11.53,4.57-5.69C370.23,180.87,371.01,202.78,371.01,202.78z"/>
					<g>
						<polygon class="st74" points="330.1,184.92 349.77,201.36 354.71,192.34 337.63,179.62 						"/>
						<polygon class="st1" points="331.56,185.12 349.74,199.82 353.99,192.44 337.71,180.31 						"/>
						<polygon class="st15" points="331,183.48 331.8,184.06 336.65,180.64 336.01,180.19 						"/>
					</g>
					<g>
						<linearGradient id="SVGID_36_" gradientUnits="userSpaceOnUse" x1="333.004" y1="175.357" x2="367.6869" y2="177.7435">
							<stop  offset="0" style="stop-color:#FF6570"/>
							<stop  offset="1" style="stop-color:#EC374F"/>
						</linearGradient>
						<path class="st75" d="M343.34,174.29l-0.34,3.42c0,0,13.04,13.83,24.92,0.66l-0.87-7.79
							C367.06,170.58,359.49,186.35,343.34,174.29z"/>
						<path class="st58" d="M343.34,174.29c-1.64-0.56-2.31-2.27-3.21-0.41c-1.67,3.43,2.87,3.84,2.87,3.84L343.34,174.29z"/>
						<path class="st55" d="M342.13,167.46l-2.65,9.98l0.06,1.36l0.84-1.05l2.59-9.98C343.07,167,342.44,166.74,342.13,167.46z"/>
						<path class="st58" d="M341.91,174.85c0,0-1.95,0.69-2.15,0.29c-0.19-0.4,1.52-1.16,1.89-1.75c0.37-0.6,1.11,0.98,1.11,0.98
							L341.91,174.85z"/>
					</g>
					<polygon class="st58" points="363.41,165.23 365.35,169.73 367.08,168.2 367.33,163.26 					"/>
					<path class="st58" d="M360.42,158.12c-0.83,4.93-1.42,8.23,2.28,8.44c3.36,0.2,6.23-5.04,6.23-5.04
						C371.53,155.75,361.86,149.58,360.42,158.12z"/>
					<path class="st55" d="M357.03,153.21c3.39,4.91,8.18,5.65,9.67,5.14c0.7-0.24,0.72,0.52,0.44,1.99
						c1.88-0.87,1.21,1.52-0.16,2.38c-0.4,0.9-0.61,2.13-0.61,2.13s4.65-3.01,4.66-6.22c0.01-3.89-2.87-3.46-2.87-3.46
						s-1.71-5.26-6.42-3.61C357.03,153.21,357.03,153.21,357.03,153.21z"/>
					<polygon class="st1" points="363.59,168.44 368.2,165.86 369.51,168.2 362.79,171.96 					"/>
					<linearGradient id="SVGID_37_" gradientUnits="userSpaceOnUse" x1="358.6376" y1="170.8677" x2="358.6376" y2="210.9217">
						<stop  offset="0" style="stop-color:#FF6570"/>
						<stop  offset="1" style="stop-color:#EC374F"/>
					</linearGradient>
					<path class="st76" d="M341.71,192.34l0.54,4.14c-0.12,0.11,14.38,5.59,20.54-10.64c0,0-1.6,10.86-3.9,18.84
						c0,0,7.11,3.44,16.56,1.79c0,0,1.29-28.75-5.07-37.74c-3.37-4.76-8.09,3.03-9.27,7.81
						C359.63,182.61,356.11,196.19,341.71,192.34z"/>
					<path class="st58" d="M341.71,192.34c0,0-2.5-0.68-3.44-0.06c-0.94,0.62,0.37,2.64,1.46,3.78s2.51,0.42,2.51,0.42
						L341.71,192.34z"/>
				</g>
			</g>
		</g>
		<g>
			<path class="st1" d="M511.44,240.44c0.97-0.51,34-11.8,34-11.8l3.01,4.46L511.44,240.44z"/>
			<polygon class="st11" points="548.45,233.1 548.15,248.2 511.44,240.44 			"/>
			<polygon class="st11" points="548.15,248.2 511.44,240.44 552.3,238.14 			"/>
			<polygon class="st1" points="552.3,238.14 511.44,240.44 557.04,246.05 			"/>
		</g>
		<g>
			<path class="st1" d="M91.65,37.17c0.79,0.37,10.28,7.54,10.28,7.54l29.54-4.43L91.65,37.17z"/>
			<polygon class="st11" points="101.14,57.27 101.93,44.71 131.46,40.28 			"/>
			<polygon class="st77" points="101.14,57.27 109.66,49.79 131.46,40.28 			"/>
			<polygon class="st1" points="109.66,49.79 121.62,58.34 131.46,40.28 			"/>
		</g>
		<g class="st78">
			<g>
				<circle class="st79" cx="511.44" cy="119.74" r="1.97"/>
				<circle class="st79" cx="479.53" cy="250.88" r="1.97"/>
				<circle class="st79" cx="501.83" cy="53.71" r="1.97"/>
				<circle class="st79" cx="552.3" cy="161.46" r="1.97"/>
				<circle class="st79" cx="221.04" cy="58.34" r="1.97"/>
				<circle class="st79" cx="71.31" cy="58.34" r="1.97"/>
				<circle class="st79" cx="292.2" cy="83.58" r="1.97"/>
				<circle class="st79" cx="380.92" cy="48.78" r="1.97"/>
				<circle class="st79" cx="125.41" cy="86.85" r="1.97"/>
				<circle class="st79" cx="57.4" cy="137.37" r="1.97"/>
				<circle class="st79" cx="527.98" cy="218.04" r="1.97"/>
				<circle class="st79" cx="69.33" cy="222.95" r="1.97"/>
				<circle class="st79" cx="138.99" cy="178.51" r="1.97"/>
			</g>
			<g>
				<path class="st1" d="M555.57,107.2h-0.9v-0.9c0-0.22-0.18-0.39-0.4-0.39c-0.22,0-0.4,0.18-0.4,0.39v0.9h-0.9
					c-0.22,0-0.4,0.18-0.4,0.4s0.18,0.39,0.4,0.39h0.9v0.9c0,0.22,0.18,0.4,0.4,0.4c0.22,0,0.4-0.18,0.4-0.4v-0.9h0.9
					c0.22,0,0.4-0.18,0.4-0.39S555.79,107.2,555.57,107.2z"/>
				<path class="st1" d="M540.97,177.32h-0.9v-0.9c0-0.22-0.18-0.39-0.4-0.39c-0.22,0-0.4,0.18-0.4,0.39v0.9h-0.9
					c-0.22,0-0.4,0.18-0.4,0.4c0,0.22,0.18,0.4,0.4,0.4h0.9v0.9c0,0.22,0.18,0.4,0.4,0.4c0.22,0,0.4-0.18,0.4-0.4v-0.9h0.9
					c0.22,0,0.4-0.18,0.4-0.4C541.36,177.49,541.18,177.32,540.97,177.32z"/>
				<path class="st1" d="M549.75,215.67h-0.9v-0.9c0-0.22-0.18-0.4-0.39-0.4c-0.22,0-0.4,0.18-0.4,0.4v0.9h-0.9
					c-0.22,0-0.39,0.18-0.39,0.4c0,0.22,0.18,0.39,0.39,0.39h0.9v0.9c0,0.22,0.18,0.4,0.4,0.4c0.22,0,0.39-0.18,0.39-0.4v-0.9h0.9
					c0.22,0,0.4-0.18,0.4-0.39C550.15,215.85,549.97,215.67,549.75,215.67z"/>
				<path class="st1" d="M482.35,130.88h-0.9v-0.9c0-0.22-0.18-0.4-0.39-0.4c-0.22,0-0.4,0.18-0.4,0.4v0.9h-0.9
					c-0.22,0-0.4,0.18-0.4,0.4c0,0.22,0.18,0.4,0.4,0.4h0.9v0.9c0,0.22,0.18,0.4,0.4,0.4c0.22,0,0.39-0.18,0.39-0.4v-0.9h0.9
					c0.22,0,0.39-0.18,0.39-0.4C482.74,131.05,482.56,130.88,482.35,130.88z"/>
				<path class="st1" d="M503.12,203.61h-0.9v-0.9c0-0.22-0.18-0.4-0.4-0.4c-0.22,0-0.39,0.18-0.39,0.4v0.9h-0.9
					c-0.22,0-0.4,0.18-0.4,0.4c0,0.22,0.18,0.4,0.4,0.4h0.9v0.9c0,0.22,0.18,0.4,0.39,0.4c0.22,0,0.4-0.18,0.4-0.4v-0.9h0.9
					c0.22,0,0.39-0.18,0.39-0.4C503.52,203.78,503.34,203.61,503.12,203.61z"/>
				<path class="st1" d="M481.52,232.39h-0.9v-0.9c0-0.22-0.18-0.39-0.39-0.39s-0.4,0.18-0.4,0.39v0.9h-0.9
					c-0.22,0-0.39,0.18-0.39,0.39c0,0.22,0.18,0.4,0.39,0.4h0.9v0.9c0,0.22,0.18,0.4,0.4,0.4s0.39-0.18,0.39-0.4v-0.9h0.9
					c0.22,0,0.39-0.18,0.39-0.4C481.92,232.57,481.74,232.39,481.52,232.39z"/>
				<path class="st1" d="M479.83,43.07h-0.9v-0.9c0-0.22-0.18-0.4-0.4-0.4c-0.22,0-0.39,0.18-0.39,0.4v0.9h-0.9
					c-0.22,0-0.4,0.18-0.4,0.4c0,0.22,0.18,0.4,0.4,0.4h0.9v0.9c0,0.22,0.18,0.4,0.39,0.4c0.22,0,0.4-0.18,0.4-0.4v-0.9h0.9
					c0.22,0,0.39-0.18,0.39-0.4C480.23,43.25,480.05,43.07,479.83,43.07z"/>
				<path class="st1" d="M416.09,33.39h-0.9v-0.9c0-0.22-0.18-0.4-0.39-0.4c-0.22,0-0.4,0.18-0.4,0.4v0.9h-0.9
					c-0.22,0-0.39,0.18-0.39,0.4s0.18,0.4,0.39,0.4h0.9v0.9c0,0.22,0.18,0.4,0.4,0.4c0.22,0,0.39-0.18,0.39-0.4v-0.9h0.9
					c0.22,0,0.39-0.18,0.39-0.4S416.31,33.39,416.09,33.39z"/>
				<path class="st1" d="M373.52,78.99h-0.9v-0.9c0-0.22-0.18-0.39-0.4-0.39s-0.39,0.18-0.39,0.39v0.9h-0.9
					c-0.22,0-0.39,0.18-0.39,0.4s0.18,0.39,0.39,0.39h0.9v0.9c0,0.22,0.18,0.4,0.39,0.4s0.4-0.18,0.4-0.4v-0.9h0.9
					c0.22,0,0.4-0.18,0.4-0.39S373.74,78.99,373.52,78.99z"/>
				<path class="st1" d="M312.13,36.77h-0.9v-0.9c0-0.22-0.18-0.4-0.39-0.4c-0.22,0-0.4,0.18-0.4,0.4v0.9h-0.9
					c-0.22,0-0.39,0.18-0.39,0.4c0,0.22,0.18,0.39,0.39,0.39h0.9v0.9c0,0.22,0.18,0.4,0.4,0.4c0.22,0,0.39-0.18,0.39-0.4v-0.9h0.9
					c0.22,0,0.4-0.18,0.4-0.39C312.53,36.95,312.35,36.77,312.13,36.77z"/>
				<path class="st1" d="M210.42,80.68h-0.9v-0.9c0-0.22-0.18-0.39-0.4-0.39c-0.22,0-0.39,0.18-0.39,0.39v0.9h-0.9
					c-0.22,0-0.39,0.18-0.39,0.39c0,0.22,0.18,0.4,0.39,0.4h0.9v0.9c0,0.22,0.18,0.4,0.39,0.4c0.22,0,0.4-0.18,0.4-0.4v-0.9h0.9
					c0.22,0,0.39-0.18,0.39-0.4C210.82,80.86,210.64,80.68,210.42,80.68z"/>
				<path class="st1" d="M241.16,27.73h-0.9v-0.9c0-0.22-0.18-0.4-0.39-0.4c-0.22,0-0.4,0.18-0.4,0.4v0.9h-0.9
					c-0.22,0-0.4,0.18-0.4,0.4s0.18,0.4,0.4,0.4h0.9v0.9c0,0.22,0.18,0.39,0.4,0.39c0.22,0,0.39-0.18,0.39-0.39v-0.9h0.9
					c0.22,0,0.39-0.18,0.39-0.4S241.38,27.73,241.16,27.73z"/>
				<path class="st1" d="M55.04,81.48h-0.9v-0.9c0-0.22-0.18-0.39-0.4-0.39s-0.4,0.18-0.4,0.39v0.9h-0.9c-0.22,0-0.4,0.18-0.4,0.39
					s0.18,0.4,0.4,0.4h0.9v0.9c0,0.22,0.18,0.4,0.4,0.4s0.4-0.18,0.4-0.4v-0.9h0.9c0.22,0,0.4-0.18,0.4-0.4S55.25,81.48,55.04,81.48
					z"/>
				<path class="st1" d="M36.74,169.33h-0.9v-0.9c0-0.22-0.18-0.4-0.4-0.4c-0.22,0-0.4,0.18-0.4,0.4v0.9h-0.9
					c-0.22,0-0.4,0.18-0.4,0.4c0,0.22,0.18,0.39,0.4,0.39h0.9v0.9c0,0.22,0.18,0.4,0.4,0.4c0.22,0,0.4-0.18,0.4-0.4v-0.9h0.9
					c0.22,0,0.4-0.18,0.4-0.39C37.14,169.51,36.96,169.33,36.74,169.33z"/>
				<path class="st1" d="M74.58,205.31h-0.9v-0.9c0-0.22-0.18-0.4-0.4-0.4s-0.39,0.18-0.39,0.4v0.9h-0.9c-0.22,0-0.4,0.18-0.4,0.4
					c0,0.22,0.18,0.39,0.4,0.39h0.9v0.9c0,0.22,0.18,0.4,0.39,0.4s0.4-0.18,0.4-0.4v-0.9h0.9c0.22,0,0.4-0.18,0.4-0.39
					C74.97,205.49,74.8,205.31,74.58,205.31z"/>
				<path class="st1" d="M97.38,91.73h-0.9v-0.9c0-0.22-0.18-0.39-0.4-0.39c-0.22,0-0.39,0.18-0.39,0.39v0.9h-0.9
					c-0.22,0-0.4,0.18-0.4,0.4c0,0.22,0.18,0.39,0.4,0.39h0.9v0.9c0,0.22,0.18,0.4,0.39,0.4c0.22,0,0.4-0.18,0.4-0.4v-0.9h0.9
					c0.22,0,0.39-0.18,0.39-0.39C97.77,91.91,97.59,91.73,97.38,91.73z"/>
				<path class="st1" d="M87.08,146.65h-0.9v-0.9c0-0.22-0.18-0.4-0.4-0.4s-0.39,0.18-0.39,0.4v0.9h-0.9c-0.22,0-0.4,0.18-0.4,0.39
					c0,0.22,0.18,0.4,0.4,0.4h0.9v0.9c0,0.22,0.18,0.4,0.39,0.4s0.4-0.18,0.4-0.4v-0.9h0.9c0.22,0,0.39-0.18,0.39-0.4
					C87.47,146.83,87.29,146.65,87.08,146.65z"/>
				<path class="st1" d="M152.82,192.35h-0.9v-0.9c0-0.22-0.18-0.4-0.4-0.4c-0.22,0-0.4,0.18-0.4,0.4v0.9h-0.9
					c-0.22,0-0.4,0.18-0.4,0.39c0,0.22,0.18,0.4,0.4,0.4h0.9v0.9c0,0.22,0.18,0.39,0.4,0.39c0.22,0,0.4-0.18,0.4-0.39v-0.9h0.9
					c0.22,0,0.4-0.18,0.4-0.4C153.21,192.53,153.04,192.35,152.82,192.35z"/>
				<path class="st1" d="M40.12,245.76h-0.9v-0.9c0-0.22-0.18-0.39-0.4-0.39c-0.22,0-0.4,0.18-0.4,0.39v0.9h-0.9
					c-0.22,0-0.4,0.18-0.4,0.4c0,0.22,0.18,0.4,0.4,0.4h0.9v0.9c0,0.22,0.18,0.4,0.4,0.4c0.22,0,0.4-0.18,0.4-0.4v-0.9h0.9
					c0.22,0,0.4-0.18,0.4-0.4C40.52,245.94,40.34,245.76,40.12,245.76z"/>
				<path class="st1" d="M164.54,44.77h-0.9v-0.9c0-0.22-0.18-0.39-0.39-0.39c-0.22,0-0.4,0.18-0.4,0.39v0.9h-0.9
					c-0.22,0-0.4,0.18-0.4,0.4s0.18,0.4,0.4,0.4h0.9v0.9c0,0.22,0.18,0.4,0.4,0.4c0.22,0,0.39-0.18,0.39-0.4v-0.9h0.9
					c0.22,0,0.4-0.18,0.4-0.4S164.76,44.77,164.54,44.77z"/>
				<path class="st1" d="M154.51,106.87h-0.9v-0.9c0-0.22-0.18-0.39-0.4-0.39c-0.22,0-0.4,0.18-0.4,0.39v0.9h-0.9
					c-0.22,0-0.4,0.18-0.4,0.39c0,0.22,0.18,0.4,0.4,0.4h0.9v0.9c0,0.22,0.18,0.4,0.4,0.4c0.22,0,0.4-0.18,0.4-0.4v-0.9h0.9
					c0.22,0,0.39-0.18,0.39-0.4C154.9,107.04,154.73,106.87,154.51,106.87z"/>
				<path class="st1" d="M510.77,92.49h-0.9v-0.9c0-0.22-0.18-0.4-0.4-0.4c-0.22,0-0.39,0.18-0.39,0.4v0.9h-0.9
					c-0.22,0-0.39,0.18-0.39,0.39s0.18,0.39,0.39,0.39h0.9v0.9c0,0.22,0.18,0.39,0.39,0.39c0.22,0,0.4-0.18,0.4-0.39v-0.9h0.9
					c0.22,0,0.4-0.18,0.4-0.39S510.99,92.49,510.77,92.49z"/>
			</g>
		</g>
	</g>
</g>
<g id="DESIGNED_BY_FREEPIK">
</g>
</svg>
